<svg width="14" height="15" viewBox="0 0 14 15" fill="none" xmlns="http://www.w3.org/2000/svg">
<path d="M13.1875 2.375H0.8125C0.663316 2.375 0.520242 2.43426 0.414753 2.53975C0.309263 2.64524 0.25 2.78832 0.25 2.9375C0.25 3.08668 0.309263 3.22976 0.414753 3.33525C0.520242 3.44074 0.663316 3.5 0.8125 3.5H1.375V13.625C1.375 13.9234 1.49353 14.2095 1.7045 14.4205C1.91548 14.6315 2.20163 14.75 2.5 14.75H11.5C11.7984 14.75 12.0845 14.6315 12.2955 14.4205C12.5065 14.2095 12.625 13.9234 12.625 13.625V3.5H13.1875C13.3367 3.5 13.4798 3.44074 13.5852 3.33525C13.6907 3.22976 13.75 3.08668 13.75 2.9375C13.75 2.78832 13.6907 2.64524 13.5852 2.53975C13.4798 2.43426 13.3367 2.375 13.1875 2.375ZM11.5 13.625H2.5V3.5H11.5V13.625ZM3.625 0.6875C3.625 0.538316 3.68426 0.395242 3.78975 0.289752C3.89524 0.184263 4.03832 0.125 4.1875 0.125H9.8125C9.96169 0.125 10.1048 0.184263 10.2102 0.289752C10.3157 0.395242 10.375 0.538316 10.375 0.6875C10.375 0.836684 10.3157 0.979758 10.2102 1.08525C10.1048 1.19074 9.96169 1.25 9.8125 1.25H4.1875C4.03832 1.25 3.89524 1.19074 3.78975 1.08525C3.68426 0.979758 3.625 0.836684 3.625 0.6875Z" fill="#454545"/>
</svg>
