<svg width="21" height="21" viewBox="0 0 21 21" fill="none" xmlns="http://www.w3.org/2000/svg">
<path d="M17.6113 11.918V16.918C17.6113 17.0837 17.5455 17.2427 17.4283 17.3599C17.3111 17.4771 17.1521 17.543 16.9863 17.543H3.23633C3.07057 17.543 2.9116 17.4771 2.79439 17.3599C2.67718 17.2427 2.61133 17.0837 2.61133 16.918V11.918C2.61133 11.7522 2.67718 11.5932 2.79439 11.476C2.9116 11.3588 3.07057 11.293 3.23633 11.293C3.40209 11.293 3.56106 11.3588 3.67827 11.476C3.79548 11.5932 3.86133 11.7522 3.86133 11.918V16.293H16.3613V11.918C16.3613 11.7522 16.4272 11.5932 16.5444 11.476C16.6616 11.3588 16.8206 11.293 16.9863 11.293C17.1521 11.293 17.3111 11.3588 17.4283 11.476C17.5455 11.5932 17.6113 11.7522 17.6113 11.918ZM9.66914 12.3602C9.72719 12.4183 9.79612 12.4644 9.87199 12.4958C9.94786 12.5273 10.0292 12.5435 10.1113 12.5435C10.1935 12.5435 10.2748 12.5273 10.3507 12.4958C10.4265 12.4644 10.4955 12.4183 10.5535 12.3602L13.6785 9.23516C13.7366 9.17709 13.7826 9.10815 13.8141 9.03228C13.8455 8.95641 13.8617 8.87509 13.8617 8.79297C13.8617 8.71085 13.8455 8.62953 13.8141 8.55366C13.7826 8.47779 13.7366 8.40885 13.6785 8.35078C13.6204 8.29271 13.5515 8.24665 13.4756 8.21522C13.3998 8.1838 13.3184 8.16762 13.2363 8.16762C13.1542 8.16762 13.0729 8.1838 12.997 8.21522C12.9211 8.24665 12.8522 8.29271 12.7941 8.35078L10.7363 10.4094V3.16797C10.7363 3.00221 10.6705 2.84324 10.5533 2.72603C10.4361 2.60882 10.2771 2.54297 10.1113 2.54297C9.94557 2.54297 9.7866 2.60882 9.66939 2.72603C9.55218 2.84324 9.48633 3.00221 9.48633 3.16797V10.4094L7.42852 8.35078C7.31124 8.23351 7.15218 8.16762 6.98633 8.16762C6.82048 8.16762 6.66142 8.23351 6.54414 8.35078C6.42686 8.46806 6.36098 8.62712 6.36098 8.79297C6.36098 8.95882 6.42686 9.11788 6.54414 9.23516L9.66914 12.3602Z" fill="#0D6AF0"/>
</svg>
