<svg width="15" height="16" viewBox="0 0 15 16" fill="none" xmlns="http://www.w3.org/2000/svg">
<path d="M7.3125 0.6875C5.86623 0.6875 4.45243 1.11637 3.2499 1.91988C2.04736 2.72339 1.1101 3.86544 0.556634 5.20163C0.00316839 6.53781 -0.141643 8.00811 0.140511 9.4266C0.422665 10.8451 1.11911 12.148 2.14178 13.1707C3.16446 14.1934 4.46742 14.8898 5.88591 15.172C7.30439 15.4541 8.77469 15.3093 10.1109 14.7559C11.4471 14.2024 12.5891 13.2651 13.3926 12.0626C14.1961 10.8601 14.625 9.44628 14.625 8C14.623 6.06123 13.8519 4.20246 12.481 2.83154C11.11 1.46063 9.25127 0.689547 7.3125 0.6875ZM9.96047 9.85203C10.0127 9.90429 10.0542 9.96634 10.0825 10.0346C10.1108 10.1029 10.1253 10.1761 10.1253 10.25C10.1253 10.3239 10.1108 10.3971 10.0825 10.4654C10.0542 10.5337 10.0127 10.5957 9.96047 10.648C9.90821 10.7002 9.84617 10.7417 9.77788 10.77C9.7096 10.7983 9.63641 10.8128 9.5625 10.8128C9.48859 10.8128 9.41541 10.7983 9.34712 10.77C9.27884 10.7417 9.2168 10.7002 9.16453 10.648L7.3125 8.79523L5.46047 10.648C5.40821 10.7002 5.34617 10.7417 5.27788 10.77C5.2096 10.7983 5.13641 10.8128 5.0625 10.8128C4.98859 10.8128 4.91541 10.7983 4.84712 10.77C4.77884 10.7417 4.7168 10.7002 4.66453 10.648C4.61227 10.5957 4.57082 10.5337 4.54253 10.4654C4.51425 10.3971 4.49969 10.3239 4.49969 10.25C4.49969 10.1761 4.51425 10.1029 4.54253 10.0346C4.57082 9.96634 4.61227 9.90429 4.66453 9.85203L6.51727 8L4.66453 6.14797C4.55899 6.04242 4.49969 5.89927 4.49969 5.75C4.49969 5.60073 4.55899 5.45758 4.66453 5.35203C4.77008 5.24648 4.91324 5.18719 5.0625 5.18719C5.21177 5.18719 5.35492 5.24648 5.46047 5.35203L7.3125 7.20477L9.16453 5.35203C9.2168 5.29977 9.27884 5.25831 9.34712 5.23003C9.41541 5.20174 9.48859 5.18719 9.5625 5.18719C9.63641 5.18719 9.7096 5.20174 9.77788 5.23003C9.84617 5.25831 9.90821 5.29977 9.96047 5.35203C10.0127 5.40429 10.0542 5.46634 10.0825 5.53462C10.1108 5.6029 10.1253 5.67609 10.1253 5.75C10.1253 5.82391 10.1108 5.8971 10.0825 5.96538C10.0542 6.03366 10.0127 6.09571 9.96047 6.14797L8.10774 8L9.96047 9.85203Z" fill="#F04438"/>
</svg>
