<svg width="25" height="25" viewBox="0 0 25 25" fill="none" xmlns="http://www.w3.org/2000/svg">
<path fill-rule="evenodd" clip-rule="evenodd" d="M7.22266 4.16797C6.82483 4.16797 6.4433 4.326 6.162 4.60731C5.88069 4.88861 5.72266 5.27014 5.72266 5.66797V19.668C5.72266 20.0658 5.88069 20.4473 6.162 20.7286C6.4433 21.0099 6.82483 21.168 7.22266 21.168H17.2227C17.6205 21.168 18.002 21.0099 18.2833 20.7286C18.5646 20.4473 18.7227 20.0658 18.7227 19.668V10.0821C18.7226 9.94952 18.6699 9.8223 18.5762 9.72858L13.1621 4.31452C13.0684 4.22077 12.9412 4.16803 12.8087 4.16797H7.22266ZM5.45489 3.9002C5.92373 3.43136 6.55962 3.16797 7.22266 3.16797H12.8087C13.2064 3.16805 13.588 3.32612 13.8692 3.60742M13.8692 3.60742L19.2832 9.02136C19.5644 9.3026 19.7226 9.6841 19.7227 10.0819V19.668C19.7227 20.331 19.4593 20.9669 18.9904 21.4357C18.5216 21.9046 17.8857 22.168 17.2227 22.168H7.22266C6.55961 22.168 5.92373 21.9046 5.45489 21.4357C4.98605 20.9669 4.72266 20.331 4.72266 19.668V5.66797C4.72266 5.00493 4.98605 4.36904 5.45489 3.9002" fill="#E72A2A"/>
<path d="M10.3811 8.67043C9.89355 8.66191 9.47271 9.14686 9.57585 9.63134C9.64523 10.3717 10.1226 10.9724 10.4951 11.5838C10.537 11.8113 10.4169 12.033 10.4089 12.259C10.166 13.5858 9.7955 14.9055 9.22546 16.1233C8.52011 16.448 7.72143 16.7687 7.30886 17.4685C7.04702 17.9541 7.4157 18.6095 7.95687 18.6607C8.45896 18.7294 8.83161 18.2991 9.10607 17.9386C9.39264 17.5508 9.5812 17.0891 9.81965 16.6723C11.2628 16.0912 12.7807 15.685 14.3304 15.5309C14.957 15.9793 15.6209 16.5084 16.4243 16.5404C16.8914 16.5334 17.2693 16.0801 17.218 15.6196C17.1879 15.2003 16.8154 14.9063 16.4296 14.8276C15.8073 14.6402 15.1408 14.7428 14.5077 14.7474C13.2896 13.774 12.165 12.6541 11.2793 11.3726C11.345 10.5936 11.477 9.73184 11.0713 9.02312C10.9173 8.79961 10.6563 8.64647 10.3811 8.67043ZM10.4043 9.37791C10.5415 9.40434 10.5506 9.60864 10.589 9.71793C10.6252 9.9406 10.6212 10.1678 10.6186 10.3927C10.4552 10.0874 10.2431 9.76842 10.2809 9.40642C10.3239 9.40475 10.362 9.38292 10.4043 9.37791ZM11.16 12.4159C11.886 13.3185 12.6925 14.1498 13.5726 14.9036C12.4122 15.0806 11.2592 15.3771 10.1553 15.7769C10.5787 14.6702 10.9011 13.5268 11.1136 12.3599C11.129 12.3785 11.1445 12.3972 11.16 12.4159ZM15.6887 15.4506C15.9702 15.4778 16.2952 15.4615 16.5204 15.6555C16.5415 15.8306 16.3273 15.8561 16.2132 15.7927C15.9752 15.7133 15.7398 15.6134 15.5378 15.4612C15.5881 15.4581 15.6383 15.4516 15.6887 15.4506ZM8.65449 17.2922C8.52063 17.5411 8.32579 17.7759 8.12257 17.9521C8.05494 18.0616 7.86938 17.8592 7.95476 17.7737C8.13108 17.4977 8.43888 17.3514 8.71148 17.1866C8.69248 17.2218 8.67349 17.257 8.65449 17.2922Z" fill="#E72A2A"/>
</svg>
