<svg width="20" height="20" viewBox="0 0 20 20" fill="none" xmlns="http://www.w3.org/2000/svg">
<path d="M3.34062 3.9075C3.27339 3.96578 3.21937 4.03774 3.18218 4.11858C3.145 4.19942 3.1255 4.28727 3.125 4.37625V17.5012C3.125 17.667 3.19085 17.826 3.30806 17.9432C3.42527 18.0604 3.58424 18.1262 3.75 18.1262C3.91576 18.1262 4.07473 18.0604 4.19194 17.9432C4.30915 17.826 4.375 17.667 4.375 17.5012V14.0458C6.46797 12.3927 8.27109 13.2841 10.3477 14.3122C11.6289 14.9458 13.0086 15.6286 14.4883 15.6286C15.5766 15.6286 16.718 15.2575 17.9117 14.2223C17.979 14.1641 18.033 14.0921 18.0702 14.0113C18.1073 13.9304 18.1268 13.8426 18.1273 13.7536V4.37625C18.1271 4.25628 18.0923 4.13893 18.0271 4.03821C17.9619 3.93749 17.8692 3.85765 17.7598 3.80823C17.6505 3.7588 17.5293 3.74188 17.4106 3.75948C17.292 3.77709 17.1809 3.82847 17.0906 3.9075C14.9031 5.80046 13.05 4.88328 10.9023 3.82C8.67734 2.71687 6.15469 1.46921 3.34062 3.9075ZM16.875 13.4583C14.782 15.1114 12.9789 14.2192 10.9023 13.1919C8.94922 12.227 6.77656 11.1505 4.375 12.5356V4.67234C6.46797 3.01921 8.27109 3.91062 10.3477 4.93796C12.3008 5.90281 14.4742 6.97937 16.875 5.59421V13.4583Z" fill="#414651"/>
</svg>
