<svg width="12" height="14" viewBox="0 0 12 14" fill="none" xmlns="http://www.w3.org/2000/svg">
<path d="M12 2.24806V9.74806C11.9996 9.81924 11.984 9.88952 11.9543 9.95419C11.9245 10.0189 11.8813 10.0764 11.8275 10.1231C10.8725 10.9499 9.95938 11.2481 9.08875 11.2481C7.90687 11.2481 6.80312 10.7018 5.77625 10.1949C4.11687 9.37306 2.67438 8.66119 1 9.98369V12.7481C1 12.8807 0.947321 13.0078 0.853553 13.1016C0.759785 13.1954 0.632608 13.2481 0.5 13.2481C0.367392 13.2481 0.240215 13.1954 0.146447 13.1016C0.0526785 13.0078 0 12.8807 0 12.7481V2.24806C0.000479411 2.17683 0.0161736 2.10652 0.0460312 2.04185C0.0758889 1.97717 0.119221 1.91963 0.173125 1.87306C2.42313 -0.0756899 4.4425 0.922435 6.2225 1.80306C7.9375 2.65181 9.42437 3.38556 11.1725 1.87306C11.2448 1.81043 11.3335 1.76982 11.4281 1.75607C11.5227 1.74231 11.6193 1.75598 11.7064 1.79545C11.7935 1.83492 11.8674 1.89854 11.9195 1.97876C11.9715 2.05898 11.9995 2.15244 12 2.24806Z" fill="#D92D20"/>
</svg>
