<svg width="18" height="18" viewBox="0 0 18 18" fill="none" xmlns="http://www.w3.org/2000/svg">
<path d="M4.99981 17.0756H13.0002C14.5597 17.0756 15.3357 16.2846 15.3357 14.7176V7.87729C15.3357 6.90529 15.2302 6.48358 14.6276 5.86579L10.4689 1.63965C9.89677 1.05176 9.42941 0.923828 8.57827 0.923828H4.99981C3.44795 0.923828 2.66431 1.72226 2.66431 3.28954V14.7176C2.66431 16.292 3.44795 17.0756 4.99981 17.0756ZM5.05991 15.8629C4.28399 15.8629 3.87706 15.4482 3.87706 14.6951V3.31204C3.87706 2.56633 4.28399 2.13658 5.06763 2.13658H8.41241V6.51379C8.41241 7.46297 8.89456 7.93001 9.82863 7.93001H14.1229V14.6951C14.1229 15.4482 13.7234 15.8629 12.9401 15.8629H5.05991ZM9.96427 6.79215C9.67049 6.79215 9.54963 6.67194 9.54963 6.37044V2.37026L13.8889 6.79247L9.96427 6.79215ZM11.7723 10.0016H6.05409C5.78313 10.0016 5.58738 10.2051 5.58738 10.4613C5.58738 10.7248 5.78345 10.9283 6.05441 10.9283H11.7723C11.8339 10.9293 11.8951 10.9179 11.9522 10.8948C12.0093 10.8717 12.0612 10.8373 12.1048 10.7937C12.1483 10.7502 12.1827 10.6983 12.2058 10.6412C12.2289 10.584 12.2403 10.5229 12.2393 10.4613C12.2393 10.2051 12.0359 10.0016 11.7723 10.0016ZM11.7723 12.6309H6.05409C5.78313 12.6309 5.58738 12.8418 5.58738 13.1053C5.58738 13.3615 5.78345 13.5576 6.05441 13.5576H11.7723C12.0359 13.5576 12.2393 13.3615 12.2393 13.1053C12.2393 12.8418 12.0359 12.6309 11.7723 12.6309Z" fill="#717680"/>
</svg>
