<svg width="25" height="25" viewBox="0 0 25 25" fill="none" xmlns="http://www.w3.org/2000/svg">
<path fill-rule="evenodd" clip-rule="evenodd" d="M7.66699 4.16797C7.26917 4.16797 6.88764 4.326 6.60633 4.60731C6.32503 4.88861 6.16699 5.27014 6.16699 5.66797V19.668C6.16699 20.0658 6.32503 20.4473 6.60633 20.7286C6.88764 21.0099 7.26917 21.168 7.66699 21.168H17.667C18.0648 21.168 18.4463 21.0099 18.7277 20.7286C19.009 20.4473 19.167 20.0658 19.167 19.668V10.0821V10.0821C19.1669 9.94952 19.1142 9.8223 19.0205 9.72858L13.6064 4.31452C13.5127 4.22077 13.3856 4.16803 13.253 4.16797V4.16797H7.66699ZM5.89923 3.9002C6.36807 3.43136 7.00395 3.16797 7.66699 3.16797H13.253C13.6508 3.16805 14.0323 3.32612 14.3135 3.60742M14.3135 3.60742L19.7275 9.02136V9.02136C20.0088 9.3026 20.1669 9.6841 20.167 10.0819V19.668C20.167 20.331 19.9036 20.9669 19.4348 21.4357C18.9659 21.9046 18.33 22.168 17.667 22.168H7.66699C7.00395 22.168 6.36807 21.9046 5.89923 21.4357C5.43038 20.9669 5.16699 20.331 5.16699 19.668V5.66797C5.16699 5.00493 5.43038 4.36904 5.89923 3.9002" fill="#3F82EF"/>
<path fill-rule="evenodd" clip-rule="evenodd" d="M8.66699 11.168C8.66699 10.8918 8.89085 10.668 9.16699 10.668H16.167C16.4431 10.668 16.667 10.8918 16.667 11.168C16.667 11.4441 16.4431 11.668 16.167 11.668H9.16699C8.89085 11.668 8.66699 11.4441 8.66699 11.168ZM8.66699 14.168C8.66699 13.8918 8.89085 13.668 9.16699 13.668H14.167C14.4431 13.668 14.667 13.8918 14.667 14.168C14.667 14.4441 14.4431 14.668 14.167 14.668H9.16699C8.89085 14.668 8.66699 14.4441 8.66699 14.168ZM8.66699 17.168C8.66699 16.8918 8.89085 16.668 9.16699 16.668H12.167C12.4431 16.668 12.667 16.8918 12.667 17.168C12.667 17.4441 12.4431 17.668 12.167 17.668H9.16699C8.89085 17.668 8.66699 17.4441 8.66699 17.168Z" fill="#3F82EF"/>
</svg>
