<svg width="25" height="25" viewBox="0 0 25 25" fill="none" xmlns="http://www.w3.org/2000/svg">
<path fill-rule="evenodd" clip-rule="evenodd" d="M7.11133 4.16797C6.7135 4.16797 6.33197 4.326 6.05067 4.60731C5.76936 4.88861 5.61133 5.27014 5.61133 5.66797V19.668C5.61133 20.0658 5.76936 20.4473 6.05067 20.7286C6.33197 21.0099 6.7135 21.168 7.11133 21.168H17.1113C17.5092 21.168 17.8907 21.0099 18.172 20.7286C18.4533 20.4473 18.6113 20.0658 18.6113 19.668V10.0821C18.6113 9.94952 18.5586 9.8223 18.4648 9.72858L13.0508 4.31452C12.9571 4.22077 12.8299 4.16803 12.6973 4.16797H7.11133ZM5.34356 3.9002C5.8124 3.43136 6.44829 3.16797 7.11133 3.16797H12.6973C13.0951 3.16805 13.4766 3.32612 13.7579 3.60742M13.7579 3.60742L19.1718 9.02136C19.4531 9.3026 19.6112 9.6841 19.6113 10.0819V19.668C19.6113 20.331 19.3479 20.9669 18.8791 21.4357C18.4103 21.9046 17.7744 22.168 17.1113 22.168H7.11133C6.44829 22.168 5.8124 21.9046 5.34356 21.4357C4.87472 20.9669 4.61133 20.331 4.61133 19.668V5.66797C4.61133 5.00493 4.87472 4.36904 5.34356 3.9002" fill="#299438"/>
<path fill-rule="evenodd" clip-rule="evenodd" d="M6.61133 11.668H17.6113V19.668H6.61133V11.668ZM7.61133 12.668V15.168H10.1113V12.668H7.61133ZM11.1113 12.668V15.168H16.6113V12.668H11.1113ZM16.6113 16.168H11.1113V18.668H16.6113V16.168ZM10.1113 18.668V16.168H7.61133V18.668H10.1113Z" fill="#299438"/>
</svg>
