<svg width="16" height="16" viewBox="0 0 16 16" fill="none" xmlns="http://www.w3.org/2000/svg">
<path d="M3.875 0.437502C3.19513 0.437502 2.53052 0.639107 1.96523 1.01682C1.39993 1.39454 0.959342 1.93141 0.699166 2.55953C0.438989 3.18765 0.370915 3.87881 0.503552 4.54562C0.636189 5.21243 0.963579 5.82494 1.44432 6.30568C1.92507 6.78642 2.53757 7.11381 3.20438 7.24645C3.87119 7.37909 4.56235 7.31101 5.19048 7.05084C5.8186 6.79066 6.35546 6.35007 6.73318 5.78477C7.1109 5.21948 7.3125 4.55487 7.3125 3.875C7.3125 2.96332 6.95034 2.08898 6.30568 1.44432C5.66102 0.799666 4.78668 0.437502 3.875 0.437502ZM3.875 5.9375C3.46708 5.9375 3.06831 5.81654 2.72914 5.58991C2.38996 5.36328 2.12561 5.04116 1.9695 4.66429C1.81339 4.28741 1.77255 3.87271 1.85213 3.47263C1.93171 3.07254 2.12815 2.70504 2.41659 2.41659C2.70504 2.12815 3.07254 1.93171 3.47263 1.85213C3.87271 1.77255 4.28741 1.81339 4.66429 1.9695C5.04116 2.12561 5.36328 2.38996 5.58991 2.72914C5.81654 3.06831 5.9375 3.46708 5.9375 3.875C5.9375 4.42201 5.7202 4.94662 5.33341 5.33341C4.94662 5.7202 4.42201 5.9375 3.875 5.9375ZM12.125 7.3125C12.8049 7.3125 13.4695 7.1109 14.0348 6.73318C14.6001 6.35546 15.0407 5.8186 15.3008 5.19048C15.561 4.56235 15.6291 3.87119 15.4965 3.20438C15.3638 2.53757 15.0364 1.92507 14.5557 1.44432C14.0749 0.963579 13.4624 0.636189 12.7956 0.503552C12.1288 0.370915 11.4376 0.438989 10.8095 0.699166C10.1814 0.959342 9.64454 1.39993 9.26682 1.96523C8.88911 2.53052 8.6875 3.19513 8.6875 3.875C8.6875 4.78668 9.04967 5.66102 9.69432 6.30568C10.339 6.95034 11.2133 7.3125 12.125 7.3125ZM12.125 1.8125C12.5329 1.8125 12.9317 1.93347 13.2709 2.1601C13.61 2.38673 13.8744 2.70884 14.0305 3.08572C14.1866 3.46259 14.2275 3.87729 14.1479 4.27738C14.0683 4.67746 13.8719 5.04496 13.5834 5.33341C13.295 5.62186 12.9275 5.81829 12.5274 5.89787C12.1273 5.97745 11.7126 5.93661 11.3357 5.7805C10.9588 5.6244 10.6367 5.36004 10.4101 5.02087C10.1835 4.68169 10.0625 4.28293 10.0625 3.875C10.0625 3.32799 10.2798 2.80339 10.6666 2.41659C11.0534 2.0298 11.578 1.8125 12.125 1.8125ZM3.875 8.6875C3.19513 8.6875 2.53052 8.88911 1.96523 9.26682C1.39993 9.64454 0.959342 10.1814 0.699166 10.8095C0.438989 11.4376 0.370915 12.1288 0.503552 12.7956C0.636189 13.4624 0.963579 14.0749 1.44432 14.5557C1.92507 15.0364 2.53757 15.3638 3.20438 15.4965C3.87119 15.6291 4.56235 15.561 5.19048 15.3008C5.8186 15.0407 6.35546 14.6001 6.73318 14.0348C7.1109 13.4695 7.3125 12.8049 7.3125 12.125C7.3125 11.2133 6.95034 10.339 6.30568 9.69432C5.66102 9.04967 4.78668 8.6875 3.875 8.6875ZM3.875 14.1875C3.46708 14.1875 3.06831 14.0665 2.72914 13.8399C2.38996 13.6133 2.12561 13.2912 1.9695 12.9143C1.81339 12.5374 1.77255 12.1227 1.85213 11.7226C1.93171 11.3225 2.12815 10.955 2.41659 10.6666C2.70504 10.3781 3.07254 10.1817 3.47263 10.1021C3.87271 10.0225 4.28741 10.0634 4.66429 10.2195C5.04116 10.3756 5.36328 10.64 5.58991 10.9791C5.81654 11.3183 5.9375 11.7171 5.9375 12.125C5.9375 12.672 5.7202 13.1966 5.33341 13.5834C4.94662 13.9702 4.42201 14.1875 3.875 14.1875ZM12.125 8.6875C11.4451 8.6875 10.7805 8.88911 10.2152 9.26682C9.64993 9.64454 9.20934 10.1814 8.94917 10.8095C8.68899 11.4376 8.62091 12.1288 8.75355 12.7956C8.88619 13.4624 9.21358 14.0749 9.69432 14.5557C10.1751 15.0364 10.7876 15.3638 11.4544 15.4965C12.1212 15.6291 12.8124 15.561 13.4405 15.3008C14.0686 15.0407 14.6055 14.6001 14.9832 14.0348C15.3609 13.4695 15.5625 12.8049 15.5625 12.125C15.5625 11.2133 15.2003 10.339 14.5557 9.69432C13.911 9.04967 13.0367 8.6875 12.125 8.6875ZM12.125 14.1875C11.7171 14.1875 11.3183 14.0665 10.9791 13.8399C10.64 13.6133 10.3756 13.2912 10.2195 12.9143C10.0634 12.5374 10.0225 12.1227 10.1021 11.7226C10.1817 11.3225 10.3781 10.955 10.6666 10.6666C10.955 10.3781 11.3225 10.1817 11.7226 10.1021C12.1227 10.0225 12.5374 10.0634 12.9143 10.2195C13.2912 10.3756 13.6133 10.64 13.8399 10.9791C14.0665 11.3183 14.1875 11.7171 14.1875 12.125C14.1875 12.672 13.9702 13.1966 13.5834 13.5834C13.1966 13.9702 12.672 14.1875 12.125 14.1875Z" fill="#575757"/>
</svg>
